<?xml version="1.0" encoding="UTF-8"?>
<svg xmlns="http://www.w3.org/2000/svg" width="81" height="52" viewBox="0 0 81 52" fill="none">
  <path d="M0.507812 20.3556L29.798 1L30.1596 1.65C30.7382 2.73333 31.2444 3.74444 31.6783 4.82778L31.823 5.40556L9.18638 20.3556L31.823 35.3056L31.606 35.8111C31.1721 36.8944 30.6658 37.9056 30.1596 38.9889L29.798 39.6389L0.507812 20.3556Z" fill="#FDD302"></path>
  <path d="M34.1375 47.1495L33.9205 47.655C33.4866 48.7384 32.9804 49.8217 32.4018 50.8328L32.1125 51.555L2.75 32.1995L7.01696 29.3828L7.95714 29.9606L34.1375 47.1495Z" fill="#EE5543"></path>
  <path d="M34.643 23.389C34.643 23.6057 34.5707 23.8223 34.5707 24.039V24.3279C34.4983 25.0501 34.426 25.8446 34.2814 26.5668C34.209 26.9279 34.209 27.2168 34.1367 27.5057C33.9198 28.6612 33.7028 29.6001 33.4858 30.4668L33.2689 31.3334L32.4733 30.8279L16.418 20.3557L33.1965 9.30566L33.4858 10.2446C33.7028 11.1112 33.9198 12.0501 34.1367 13.2057C34.209 13.4946 34.209 13.7112 34.2814 14.0001C34.426 14.8668 34.4983 15.6612 34.5707 16.3834V16.6723C34.5707 16.889 34.643 17.1057 34.643 17.3223C34.7153 18.4779 34.7876 19.489 34.7876 20.4279C34.7876 21.2946 34.7153 22.3057 34.643 23.389Z" fill="#3D459A"></path>
  <path d="M39.9948 34.9448L39.7055 35.6671L36.7403 33.7171L36.8126 33.2115C36.8849 33.0671 36.8849 32.8504 36.9573 32.7059L37.1019 32.2726C37.2465 31.8393 37.3912 31.3337 37.4635 30.9004C37.6081 30.1782 37.8251 29.4559 37.9698 28.7337L38.0421 28.4448L38.259 27.3615C38.4037 26.5671 38.476 25.7726 38.5483 24.9782L38.6207 24.5448C38.6207 24.3282 38.693 24.1115 38.693 23.8226C38.7653 22.5948 38.8376 21.4393 38.8376 20.2837C38.8376 19.1282 38.7653 17.9726 38.693 16.7448C38.693 16.5282 38.6207 16.3115 38.6207 16.0226L38.5483 15.5893C38.476 14.7948 38.3314 14.0004 38.259 13.2059L38.0421 12.1226L37.9698 11.8337C37.8251 11.1115 37.6805 10.3893 37.4635 9.66706C37.3189 9.23372 37.2465 8.72817 37.1019 8.29483L36.9573 7.8615C36.8849 7.71706 36.8849 7.50039 36.8126 7.35595L36.668 6.85039L39.6332 4.90039L39.9224 5.62261C41.9474 10.3171 42.9599 15.2282 42.9599 20.2115C42.9599 25.3393 41.9474 30.2504 39.9948 34.9448Z" fill="#0FA663"></path>
  <path d="M58.7284 28.8722C58.4391 29.3056 57.9328 29.7389 57.4266 29.9556C56.9203 30.1722 56.1971 30.3889 55.4739 30.3889H54.8953C54.1721 30.3889 53.5212 30.1722 53.015 29.9556C52.5087 29.7389 52.0748 29.3056 51.7855 28.8722C51.4962 28.4389 51.3516 27.8611 51.3516 27.2111V21H54.2444V27.2111C54.2444 27.5 54.2444 27.7167 54.4614 27.9333C54.6784 28.15 54.8953 28.2222 55.1846 28.2222C55.4739 28.2222 55.8355 28.15 56.0525 27.9333C56.2694 27.7167 56.4141 27.5 56.4141 27.2111V21H59.3069V27.2111C59.3069 27.8611 59.0176 28.3667 58.7284 28.8722Z" fill="#FDD302"></path>
  <path d="M67.1183 21H63.6469L60.6094 30.3889H63.2853L63.7915 28.2222H66.6844L67.2629 30.3889H70.1558L67.1183 21ZM64.0808 26.7778L65.0933 23.1667H65.3826L66.4674 26.7778H64.0808Z" fill="#FDD302"></path>
  <path d="M77.7472 21H74.2758L71.2383 30.3889H73.9142L74.4204 28.2222H77.3133L77.8918 30.3889H80.7847L77.7472 21ZM74.7097 26.7778L75.7222 23.1667H76.0115L77.0963 26.7778H74.7097Z" fill="#FDD302"></path>
</svg>
